# xmcd CD database file
#
# Track frame offsets:
#	150
#	12480
#	21846
#	34646
#	53390
#	68887
#	78723
#	91904
#	104774
#	125204
#
# Disc length: 1824 seconds
#
# Revision: 0
# Processed by: cddbd v1.4PL0 Copyright (c) Steve Scherf et al.
# Submitted via: CDex 1.40Beta9
#
DISCID=82071e0a
DTITLE=Charlie Pride - Kiss An Angel Good Morning
DYEAR=1900
DGENRE=Country
TTITLE0=Kaw-Liga
TTITLE1=Kiss An Angel Good Morning
TTITLE2=She's Too Good To Be True
TTITLE3=She's Just An Old Love
TTITLE4=Someone Loves You Honey
TTITLE5=Where Do I Put Her Memory
TTITLE6=Mountain Of Love
TTITLE7=I Don't Think She's In Love Anymore
TTITLE8=You're So Good When You're Bad
TTITLE9=Hello Love
EXTD=ID3G: 2
EXTT0=
EXTT1=
EXTT2=
EXTT3=
EXTT4=
EXTT5=
EXTT6=
EXTT7=
EXTT8=
EXTT9=
PLAYORDER=
